# xmcd
#
# Track frame offsets: 
#        150
#        13260
#        23480
#        34752
#        44017
#        53407
#        65787
#        76657
#        87285
#        100470
#        111460
#        124560
#        137137
#        150652
#        164312
#        178740
#        191062
#        209090
#        222557
#        237500
#        250780
#        263115
#        277475
#        289595
#        305360
#
# Disc length: 4200 seconds
#
# Revision: 4
# Processed by: cddbd v1.5.2PL0 Copyright (c) Steve Scherf et al.
# Submitted via: ExactAudioCopy v1.3
#
DISCID=79106619
DTITLE=Various Artist - Nashville Classics - The 70's
DYEAR=1995
DGENRE=Country
TTITLE0=Kenny Price - The Sherriff Of Boone County
TTITLE1=Jerry Reed - When You're Hot, You're Hot
TTITLE2=Connie Smith - Just One Time
TTITLE3=Charley Pride - Kiss An Angel Good Mornin'
TTITLE4=Dottie West - Country Sunshine
TTITLE5=Johnny Russell - The Baptism Of Jesse Taylor
TTITLE6=Charlie Rich - There Won't Be Anymore
TTITLE7=Ronnie Milsap - Pure Love
TTITLE8=Dolly Parton - I Will Always Love You
TTITLE9=Waylon Jennings - This Time
TTITLE10=Bobby Bare - Marie Laveau
TTITLE11=Porter Wagoner and Dolly Parton - Please Don't Stop Loving Me
TTITLE12=Gary Stewart - Out Of Hand
TTITLE13=Dottsy - Storms Never Last
TTITLE14=Vernon Oxford - Shadows Of My Mind
TTITLE15=Dave and Sugar - The Door Is Always Open
TTITLE16=Waylon Jennings and Jessi Colter - Suspicious Minds
TTITLE17=Dickey Lee - 9,999,999 Tears
TTITLE18=Waylon Jennings -  Luckenbach, Texas (Back To The Basics Of L
TTITLE18=ove)
TTITLE19=Dolly Parton - Here You Come Again
TTITLE20=Zella Lehr - Two Doors Down
TTITLE21=Tom T. Hall - What Have You Got To Lose
TTITLE22=Razzy Bailey - If Love Had A Face
TTITLE23=Alabama - I Wanna Come Over
TTITLE24=Jim Reeves and Deborah Allen - Oh, How I Miss You Tonight
EXTD=Entered By Itaot...
EXTT0=
EXTT1=
EXTT2=
EXTT3=
EXTT4=
EXTT5=
EXTT6=
EXTT7=
EXTT8=
EXTT9=
EXTT10=
EXTT11=
EXTT12=
EXTT13=
EXTT14=
EXTT15=
EXTT16=
EXTT17=
EXTT18=
EXTT19=
EXTT20=
EXTT21=
EXTT22=
EXTT23=
EXTT24=
PLAYORDER=
